{
  "accessors": [
    {
      "bufferView": 2,
      "componentType": 5126,
      "count": 812,
      "max": [
        1.6939270496368408,
        1.6939270496368408,
        4.362833023071289
      ],
      "min": [
        -1.6939270496368408,
        -1.6939270496368408,
        -4.392234802246094
      ],
      "type": "VEC3"
    },
    {
      "bufferView": 2,
      "byteOffset": 9744,
      "componentType": 5126,
      "count": 812,
      "max": [
        0.9998875856399536,
        0.9998875856399536,
        1.0
      ],
      "min": [
        -0.9998875856399536,
        -0.9998875856399536,
        -0.9767153859138489
      ],
      "type": "VEC3"
    },
    {
      "bufferView": 3,
      "componentType": 5126,
      "count": 812,
      "max": [
        1.0,
        1.0,
        0.9828172922134399,
        1.0
      ],
      "min": [
        -1.0,
        -0.9991307854652405,
        -0.9826942086219788,
        1.0
      ],
      "type": "VEC4"
    },
    {
      "bufferView": 1,
      "componentType": 5126,
      "count": 812,
      "max": [
        0.998291015625,
        0.9983159899711609
      ],
      "min": [
        0.0017089999746531248,
        0.0016840000171214342
      ],
      "type": "VEC2"
    },
    {
      "bufferView": 0,
      "componentType": 5125,
      "count": 3348,
      "type": "SCALAR"
    }
  ],
  "asset": {
    "extras": {
      "author": "Blender3D (https://sketchfab.com/Blender3D)",
      "license": "CC-BY-4.0 (http://creativecommons.org/licenses/by/4.0/)",
      "source": "https://sketchfab.com/3d-models/simple-glass-cup-a9d4e134a68c4dc4a2a375bd1b227f6b",
      "title": "Simple Glass Cup"
    },
    "generator": "Sketchfab-12.66.0",
    "version": "2.0"
  },
  "bufferViews": [
    {
      "buffer": 0,
      "byteLength": 13392,
      "name": "floatBufferViews",
      "target": 34963
    },
    {
      "buffer": 0,
      "byteLength": 6496,
      "byteOffset": 13392,
      "byteStride": 8,
      "name": "floatBufferViews",
      "target": 34962
    },
    {
      "buffer": 0,
      "byteLength": 19488,
      "byteOffset": 19888,
      "byteStride": 12,
      "name": "floatBufferViews",
      "target": 34962
    },
    {
      "buffer": 0,
      "byteLength": 12992,
      "byteOffset": 39376,
      "byteStride": 16,
      "name": "floatBufferViews",
      "target": 34962
    }
  ],
  "buffers": [
    {
      "byteLength": 52368,
      "uri": "scene.bin"
    }
  ],
  "extensionsRequired": [
    "KHR_materials_pbrSpecularGlossiness"
  ],
  "extensionsUsed": [
    "KHR_materials_pbrSpecularGlossiness"
  ],
  "images": [
    {
      "uri": "textures/None_diffuse.jpeg"
    },
    {
      "uri": "textures/None_specularGlossiness.png"
    },
    {
      "uri": "textures/None_normal.jpeg"
    },
    {
      "uri": "textures/None_occlusion.png"
    }
  ],
  "materials": [
    {
      "alphaMode": "BLEND",
      "extensions": {
        "KHR_materials_pbrSpecularGlossiness": {
          "diffuseFactor": [
            1.0,
            1.0,
            1.0,
            0.09
          ],
          "diffuseTexture": {
            "index": 0
          },
          "glossinessFactor": 0.8872727365204783,
          "specularFactor": [
            1.0,
            1.0,
            1.0
          ],
          "specularGlossinessTexture": {
            "index": 1
          }
        }
      },
      "name": "None",
      "normalTexture": {
        "index": 2,
        "scale": 0.16000000924775098
      },
      "occlusionTexture": {
        "index": 3
      }
    }
  ],
  "meshes": [
    {
      "name": "Object_0",
      "primitives": [
        {
          "attributes": {
            "NORMAL": 1,
            "POSITION": 0,
            "TANGENT": 2,
            "TEXCOORD_0": 3
          },
          "indices": 4,
          "material": 0,
          "mode": 4
        }
      ]
    }
  ],
  "nodes": [
    {
      "children": [
        1
      ],
      "matrix": [
        1.0,
        0.0,
        0.0,
        0.0,
        0.0,
        2.220446049250313e-16,
        -1.0,
        0.0,
        0.0,
        1.0,
        2.220446049250313e-16,
        0.0,
        0.0,
        0.0,
        0.0,
        1.0
      ],
      "name": "Sketchfab_model"
    },
    {
      "children": [
        2
      ],
      "name": "Cup.obj.cleaner.materialmerger.gles"
    },
    {
      "mesh": 0,
      "name": "Object_2"
    }
  ],
  "samplers": [
    {
      "magFilter": 9729,
      "minFilter": 9987,
      "wrapS": 10497,
      "wrapT": 10497
    }
  ],
  "scene": 0,
  "scenes": [
    {
      "name": "Sketchfab_Scene",
      "nodes": [
        0
      ]
    }
  ],
  "textures": [
    {
      "sampler": 0,
      "source": 0
    },
    {
      "sampler": 0,
      "source": 1
    },
    {
      "sampler": 0,
      "source": 2
    },
    {
      "sampler": 0,
      "source": 3
    }
  ]
}
