{
  "accessors": [
    {
      "bufferView": 2,
      "componentType": 5126,
      "count": 65532,
      "max": [
        21.402273178100586,
        22.592697143554688,
        19.336050033569336
      ],
      "min": [
        -22.12720489501953,
        -24.089229583740234,
        3.5934066772460938
      ],
      "type": "VEC3"
    },
    {
      "bufferView": 2,
      "byteOffset": 786384,
      "componentType": 5126,
      "count": 65532,
      "max": [
        0.9998038411140442,
        0.9999676942825317,
        0.9999980330467224
      ],
      "min": [
        -0.9999775290489197,
        -0.999921441078186,
        -0.9987874031066895
      ],
      "type": "VEC3"
    },
    {
      "bufferView": 1,
      "componentType": 5126,
      "count": 65532,
      "max": [
        0.9996718168258667,
        0.9981098175048828
      ],
      "min": [
        0.000244140625,
        0.00025161041412502527
      ],
      "type": "VEC2"
    },
    {
      "bufferView": 0,
      "componentType": 5125,
      "count": 269013,
      "type": "SCALAR"
    },
    {
      "bufferView": 2,
      "byteOffset": 1572768,
      "componentType": 5126,
      "count": 65532,
      "max": [
        11.749505996704102,
        31.819122314453125,
        22.270872116088867
      ],
      "min": [
        -22.487112045288086,
        -9.744580268859863,
        4.91156005859375
      ],
      "type": "VEC3"
    },
    {
      "bufferView": 2,
      "byteOffset": 2359152,
      "componentType": 5126,
      "count": 65532,
      "max": [
        0.9998693466186523,
        0.9999527335166931,
        0.999992311000824
      ],
      "min": [
        -0.9999730587005615,
        -0.9999181032180786,
        -0.9973633885383606
      ],
      "type": "VEC3"
    },
    {
      "bufferView": 1,
      "byteOffset": 524256,
      "componentType": 5126,
      "count": 65532,
      "max": [
        0.9997503757476807,
        0.9968260526657104
      ],
      "min": [
        0.000244140625,
        0.00024851097259670496
      ],
      "type": "VEC2"
    },
    {
      "bufferView": 0,
      "byteOffset": 1076052,
      "componentType": 5125,
      "count": 270012,
      "type": "SCALAR"
    },
    {
      "bufferView": 2,
      "byteOffset": 3145536,
      "componentType": 5126,
      "count": 65532,
      "max": [
        21.455202102661133,
        31.603185653686523,
        22.26643943786621
      ],
      "min": [
        -22.487112045288086,
        -23.657346725463867,
        3.6571502685546875
      ],
      "type": "VEC3"
    },
    {
      "bufferView": 2,
      "byteOffset": 3931920,
      "componentType": 5126,
      "count": 65532,
      "max": [
        0.9994458556175232,
        0.9990436434745789,
        0.999995768070221
      ],
      "min": [
        -0.999931275844574,
        -0.999810516834259,
        -0.9994553327560425
      ],
      "type": "VEC3"
    },
    {
      "bufferView": 1,
      "byteOffset": 1048512,
      "componentType": 5126,
      "count": 65532,
      "max": [
        0.9996367692947388,
        0.9987791776657104
      ],
      "min": [
        0.000244140625,
        0.00024988187942653894
      ],
      "type": "VEC2"
    },
    {
      "bufferView": 0,
      "byteOffset": 2156100,
      "componentType": 5125,
      "count": 236217,
      "type": "SCALAR"
    },
    {
      "bufferView": 2,
      "byteOffset": 4718304,
      "componentType": 5126,
      "count": 42949,
      "max": [
        15.105344772338867,
        29.519832611083984,
        21.81171989440918
      ],
      "min": [
        -19.721845626831055,
        -23.131755828857422,
        4.885749816894531
      ],
      "type": "VEC3"
    },
    {
      "bufferView": 2,
      "byteOffset": 5233692,
      "componentType": 5126,
      "count": 42949,
      "max": [
        0.999970555305481,
        0.9996837377548218,
        0.999992311000824
      ],
      "min": [
        -0.9999741315841675,
        -0.9999097585678101,
        -0.9989021420478821
      ],
      "type": "VEC3"
    },
    {
      "bufferView": 1,
      "byteOffset": 1572768,
      "componentType": 5126,
      "count": 42949,
      "max": [
        0.999755322933197,
        0.9987791776657104
      ],
      "min": [
        0.000244140625,
        0.0002458287635818124
      ],
      "type": "VEC2"
    },
    {
      "bufferView": 0,
      "byteOffset": 3100968,
      "componentType": 5125,
      "count": 124626,
      "type": "SCALAR"
    }
  ],
  "asset": {
    "extras": {
      "author": "yoshimura.manufacturing (https://sketchfab.com/yoshimura.manufacturing)",
      "license": "CC-BY-4.0 (http://creativecommons.org/licenses/by/4.0/)",
      "source": "https://sketchfab.com/3d-models/sushi-055cd836750a4cc0900680c9a16bcb0c",
      "title": "Sushi"
    },
    "generator": "Sketchfab-16.15.0",
    "version": "2.0"
  },
  "bufferViews": [
    {
      "buffer": 0,
      "byteLength": 3599472,
      "name": "floatBufferViews",
      "target": 34963
    },
    {
      "buffer": 0,
      "byteLength": 1916360,
      "byteOffset": 3599472,
      "byteStride": 8,
      "name": "floatBufferViews",
      "target": 34962
    },
    {
      "buffer": 0,
      "byteLength": 5749080,
      "byteOffset": 5515832,
      "byteStride": 12,
      "name": "floatBufferViews",
      "target": 34962
    }
  ],
  "buffers": [
    {
      "byteLength": 11264912,
      "uri": "scene.bin"
    }
  ],
  "extensionsUsed": [
    "KHR_materials_unlit"
  ],
  "images": [
    {
      "uri": "textures/tex_u1_v1_baseColor.jpeg"
    }
  ],
  "materials": [
    {
      "doubleSided": true,
      "extensions": {
        "KHR_materials_unlit": {}
      },
      "name": "tex_u1_v1",
      "pbrMetallicRoughness": {
        "baseColorTexture": {
          "index": 0
        },
        "metallicFactor": 0.0
      }
    }
  ],
  "meshes": [
    {
      "name": "Object_0",
      "primitives": [
        {
          "attributes": {
            "NORMAL": 1,
            "POSITION": 0,
            "TEXCOORD_0": 2
          },
          "indices": 3,
          "material": 0,
          "mode": 4
        }
      ]
    },
    {
      "name": "Object_1",
      "primitives": [
        {
          "attributes": {
            "NORMAL": 5,
            "POSITION": 4,
            "TEXCOORD_0": 6
          },
          "indices": 7,
          "material": 0,
          "mode": 4
        }
      ]
    },
    {
      "name": "Object_2",
      "primitives": [
        {
          "attributes": {
            "NORMAL": 9,
            "POSITION": 8,
            "TEXCOORD_0": 10
          },
          "indices": 11,
          "material": 0,
          "mode": 4
        }
      ]
    },
    {
      "name": "Object_3",
      "primitives": [
        {
          "attributes": {
            "NORMAL": 13,
            "POSITION": 12,
            "TEXCOORD_0": 14
          },
          "indices": 15,
          "material": 0,
          "mode": 4
        }
      ]
    }
  ],
  "nodes": [
    {
      "children": [
        1
      ],
      "matrix": [
        -0.4452594220638275,
        -0.35148525238037126,
        0.8235303163528441,
        0.0,
        0.8885149955749512,
        -0.28729009628295904,
        0.3577785193920135,
        0.0,
        0.11083821952342987,
        0.891023278236389,
        0.4402185380458834,
        0.0,
        0.0,
        0.0,
        0.0,
        1.0
      ],
      "name": "Sketchfab_model"
    },
    {
      "children": [
        2,
        3,
        4,
        5
      ],
      "name": "model.obj.cleaner.materialmerger.gles"
    },
    {
      "mesh": 0,
      "name": "Object_2"
    },
    {
      "mesh": 1,
      "name": "Object_3"
    },
    {
      "mesh": 2,
      "name": "Object_4"
    },
    {
      "mesh": 3,
      "name": "Object_5"
    }
  ],
  "samplers": [
    {
      "magFilter": 9729,
      "minFilter": 9987,
      "wrapS": 10497,
      "wrapT": 10497
    }
  ],
  "scene": 0,
  "scenes": [
    {
      "name": "Sketchfab_Scene",
      "nodes": [
        0
      ]
    }
  ],
  "textures": [
    {
      "sampler": 0,
      "source": 0
    }
  ]
}
